<svg id="visual" viewBox="0 0 450 900" width="450" height="900" xmlns="http://www.w3.org/2000/svg" xmlns:xlink="http://www.w3.org/1999/xlink" version="1.1"><rect x="0" y="0" width="450" height="900" fill="#001220"></rect><defs><linearGradient id="grad1_0" x1="0%" y1="0%" x2="100%" y2="100%"><stop offset="30%" stop-color="#fbae3c" stop-opacity="1"></stop><stop offset="70%" stop-color="#fbae3c" stop-opacity="1"></stop></linearGradient></defs><defs><linearGradient id="grad1_1" x1="0%" y1="0%" x2="100%" y2="100%"><stop offset="30%" stop-color="#fbae3c" stop-opacity="1"></stop><stop offset="70%" stop-color="#96446e" stop-opacity="1"></stop></linearGradient></defs><defs><linearGradient id="grad1_2" x1="0%" y1="0%" x2="100%" y2="100%"><stop offset="30%" stop-color="#001220" stop-opacity="1"></stop><stop offset="70%" stop-color="#96446e" stop-opacity="1"></stop></linearGradient></defs><defs><linearGradient id="grad2_0" x1="0%" y1="0%" x2="100%" y2="100%"><stop offset="30%" stop-color="#fbae3c" stop-opacity="1"></stop><stop offset="70%" stop-color="#fbae3c" stop-opacity="1"></stop></linearGradient></defs><defs><linearGradient id="grad2_1" x1="0%" y1="0%" x2="100%" y2="100%"><stop offset="30%" stop-color="#96446e" stop-opacity="1"></stop><stop offset="70%" stop-color="#fbae3c" stop-opacity="1"></stop></linearGradient></defs><defs><linearGradient id="grad2_2" x1="0%" y1="0%" x2="100%" y2="100%"><stop offset="30%" stop-color="#96446e" stop-opacity="1"></stop><stop offset="70%" stop-color="#001220" stop-opacity="1"></stop></linearGradient></defs><g transform="translate(450, 0)"><path d="M0 270C-43.9 257.6 -87.8 245.3 -129.5 224.3C-171.2 203.3 -210.8 173.8 -233.8 135C-256.9 96.2 -263.4 48.1 -270 0L0 0Z" fill="#3d3056"></path><path d="M0 180C-29.3 171.8 -58.5 163.5 -86.3 149.5C-114.1 135.6 -140.5 115.9 -155.9 90C-171.3 64.1 -175.6 32.1 -180 0L0 0Z" fill="#e1685e"></path><path d="M0 90C-14.6 85.9 -29.3 81.8 -43.2 74.8C-57.1 67.8 -70.3 57.9 -77.9 45C-85.6 32.1 -87.8 16 -90 0L0 0Z" fill="#fbae3c"></path></g><g transform="translate(0, 900)"><path d="M0 -270C44.4 -258.6 88.8 -247.1 130.5 -226C172.2 -205 211 -174.3 233.8 -135C256.6 -95.7 263.3 -47.9 270 0L0 0Z" fill="#3d3056"></path><path d="M0 -180C29.6 -172.4 59.2 -164.7 87 -150.7C114.8 -136.6 140.7 -116.2 155.9 -90C171.1 -63.8 175.5 -31.9 180 0L0 0Z" fill="#e1685e"></path><path d="M0 -90C14.8 -86.2 29.6 -82.4 43.5 -75.3C57.4 -68.3 70.3 -58.1 77.9 -45C85.5 -31.9 87.8 -16 90 0L0 0Z" fill="#fbae3c"></path></g></svg>