<svg id="visual" viewBox="0 0 540 960" width="540" height="960" xmlns="http://www.w3.org/2000/svg" xmlns:xlink="http://www.w3.org/1999/xlink" version="1.1"><rect x="0" y="0" width="540" height="960" fill="#001220"></rect><defs><linearGradient id="grad1_0" x1="0%" y1="0%" x2="100%" y2="100%"><stop offset="30%" stop-color="#fbae3c" stop-opacity="1"></stop><stop offset="70%" stop-color="#fbae3c" stop-opacity="1"></stop></linearGradient></defs><defs><linearGradient id="grad1_1" x1="0%" y1="0%" x2="100%" y2="100%"><stop offset="30%" stop-color="#fbae3c" stop-opacity="1"></stop><stop offset="70%" stop-color="#eb7458" stop-opacity="1"></stop></linearGradient></defs><defs><linearGradient id="grad1_2" x1="0%" y1="0%" x2="100%" y2="100%"><stop offset="30%" stop-color="#b84e6c" stop-opacity="1"></stop><stop offset="70%" stop-color="#eb7458" stop-opacity="1"></stop></linearGradient></defs><defs><linearGradient id="grad1_3" x1="0%" y1="0%" x2="100%" y2="100%"><stop offset="30%" stop-color="#b84e6c" stop-opacity="1"></stop><stop offset="70%" stop-color="#713c69" stop-opacity="1"></stop></linearGradient></defs><defs><linearGradient id="grad1_4" x1="0%" y1="0%" x2="100%" y2="100%"><stop offset="30%" stop-color="#2d2b4c" stop-opacity="1"></stop><stop offset="70%" stop-color="#713c69" stop-opacity="1"></stop></linearGradient></defs><defs><linearGradient id="grad1_5" x1="0%" y1="0%" x2="100%" y2="100%"><stop offset="30%" stop-color="#2d2b4c" stop-opacity="1"></stop><stop offset="70%" stop-color="#001220" stop-opacity="1"></stop></linearGradient></defs><defs><linearGradient id="grad2_0" x1="0%" y1="0%" x2="100%" y2="100%"><stop offset="30%" stop-color="#fbae3c" stop-opacity="1"></stop><stop offset="70%" stop-color="#fbae3c" stop-opacity="1"></stop></linearGradient></defs><defs><linearGradient id="grad2_1" x1="0%" y1="0%" x2="100%" y2="100%"><stop offset="30%" stop-color="#eb7458" stop-opacity="1"></stop><stop offset="70%" stop-color="#fbae3c" stop-opacity="1"></stop></linearGradient></defs><defs><linearGradient id="grad2_2" x1="0%" y1="0%" x2="100%" y2="100%"><stop offset="30%" stop-color="#eb7458" stop-opacity="1"></stop><stop offset="70%" stop-color="#b84e6c" stop-opacity="1"></stop></linearGradient></defs><defs><linearGradient id="grad2_3" x1="0%" y1="0%" x2="100%" y2="100%"><stop offset="30%" stop-color="#713c69" stop-opacity="1"></stop><stop offset="70%" stop-color="#b84e6c" stop-opacity="1"></stop></linearGradient></defs><defs><linearGradient id="grad2_4" x1="0%" y1="0%" x2="100%" y2="100%"><stop offset="30%" stop-color="#713c69" stop-opacity="1"></stop><stop offset="70%" stop-color="#2d2b4c" stop-opacity="1"></stop></linearGradient></defs><defs><linearGradient id="grad2_5" x1="0%" y1="0%" x2="100%" y2="100%"><stop offset="30%" stop-color="#001220" stop-opacity="1"></stop><stop offset="70%" stop-color="#2d2b4c" stop-opacity="1"></stop></linearGradient></defs><g transform="translate(540, 0)"><path d="M0 351C-32.4 334.9 -64.8 318.7 -100.7 310C-136.7 301.4 -176.1 300.2 -205.1 282.3C-234.1 264.5 -252.7 230.1 -274.3 199.3C-295.9 168.4 -320.5 141.1 -333.8 108.5C-347.1 75.8 -349.1 37.9 -351 0L0 0Z" fill="#131f37"></path><path d="M0 292.5C-27 279 -54 265.6 -83.9 258.4C-113.9 251.1 -146.8 250.1 -170.9 235.3C-195.1 220.4 -210.6 191.8 -228.5 166C-246.5 140.3 -267.1 117.6 -278.2 90.4C-289.3 63.2 -290.9 31.6 -292.5 0L0 0Z" fill="#4d345e"></path><path d="M0 234C-21.6 223.2 -43.2 212.5 -67.2 206.7C-91.1 200.9 -117.4 200.1 -136.8 188.2C-156.1 176.4 -168.4 153.4 -182.8 132.8C-197.2 112.3 -213.7 94.1 -222.5 72.3C-231.4 50.6 -232.7 25.3 -234 0L0 0Z" fill="#96446e"></path><path d="M0 175.5C-16.2 167.4 -32.4 159.4 -50.4 155C-68.3 150.7 -88.1 150.1 -102.6 141.2C-117.1 132.3 -126.3 115.1 -137.1 99.6C-147.9 84.2 -160.3 70.5 -166.9 54.2C-173.6 37.9 -174.5 19 -175.5 0L0 0Z" fill="#d55e64"></path><path d="M0 117C-10.8 111.6 -21.6 106.2 -33.6 103.3C-45.6 100.5 -58.7 100.1 -68.4 94.1C-78 88.2 -84.2 76.7 -91.4 66.4C-98.6 56.1 -106.8 47 -111.3 36.2C-115.7 25.3 -116.4 12.6 -117 0L0 0Z" fill="#f88f4a"></path><path d="M0 58.5C-5.4 55.8 -10.8 53.1 -16.8 51.7C-22.8 50.2 -29.4 50 -34.2 47.1C-39 44.1 -42.1 38.4 -45.7 33.2C-49.3 28.1 -53.4 23.5 -55.6 18.1C-57.9 12.6 -58.2 6.3 -58.5 0L0 0Z" fill="#fbae3c"></path></g><g transform="translate(0, 960)"><path d="M0 -351C36.7 -348 73.4 -344.9 108.5 -333.8C143.5 -322.7 176.9 -303.5 201.6 -277.5C226.3 -251.5 242.4 -218.5 259.7 -188.7C277 -158.8 295.6 -132 311 -101C326.4 -70.1 338.7 -35.1 351 0L0 0Z" fill="#131f37"></path><path d="M0 -292.5C30.6 -290 61.2 -287.4 90.4 -278.2C119.6 -268.9 147.4 -252.9 168 -231.2C188.6 -209.5 202 -182.1 216.4 -157.2C230.8 -132.3 246.3 -110 259.2 -84.2C272 -58.4 282.3 -29.2 292.5 0L0 0Z" fill="#4d345e"></path><path d="M0 -234C24.5 -232 48.9 -230 72.3 -222.5C95.7 -215.1 117.9 -202.4 134.4 -185C150.9 -167.6 161.6 -145.7 173.1 -125.8C184.7 -105.9 197 -88 207.3 -67.4C217.6 -46.7 225.8 -23.4 234 0L0 0Z" fill="#96446e"></path><path d="M0 -175.5C18.4 -174 36.7 -172.5 54.2 -166.9C71.8 -161.4 88.4 -151.8 100.8 -138.7C113.2 -125.7 121.2 -109.3 129.8 -94.3C138.5 -79.4 147.8 -66 155.5 -50.5C163.2 -35.1 169.4 -17.5 175.5 0L0 0Z" fill="#d55e64"></path><path d="M0 -117C12.2 -116 24.5 -115 36.2 -111.3C47.8 -107.6 59 -101.2 67.2 -92.5C75.4 -83.8 80.8 -72.8 86.6 -62.9C92.3 -52.9 98.5 -44 103.7 -33.7C108.8 -23.4 112.9 -11.7 117 0L0 0Z" fill="#f88f4a"></path><path d="M0 -58.5C6.1 -58 12.2 -57.5 18.1 -55.6C23.9 -53.8 29.5 -50.6 33.6 -46.2C37.7 -41.9 40.4 -36.4 43.3 -31.4C46.2 -26.5 49.3 -22 51.8 -16.8C54.4 -11.7 56.5 -5.8 58.5 0L0 0Z" fill="#fbae3c"></path></g></svg>